# xmcd
#
# Track frame offsets:
#	150
#	16845
#	29182
#	41465
#	58520
#	68705
#	83647
#	101222
#	114037
#	132777
#	145097
#
# Disc length: 2153 seconds
#
# Revision: 0
# Processed by: cddbd v1.5.2PL0 Copyright (c) Steve Scherf et al.
# Submitted via: dBpowerAMP V4.0
#
DISCID=8a08670b
DTITLE=Jim Counter - City Mind Country Heart
DYEAR=1900
DGENRE=Country
TTITLE0=Everyday It's Getting Harder To Keep Your Memory Alive
TTITLE1=Everyday Math
TTITLE2=This Time
TTITLE3=Real America
TTITLE4=Walk Outside The Lines
TTITLE5=It's True (I'm In Love With Someone New)
TTITLE6=The Most Beautiful Girl
TTITLE7=Bar Light
TTITLE8=I Need You Woman
TTITLE9=Reckless Kind Of Living
TTITLE10=Real America (Instrumental Reprise)
EXTD=
EXTT0=
EXTT1=
EXTT2=
EXTT3=
EXTT4=
EXTT5=
EXTT6=
EXTT7=
EXTT8=
EXTT9=
EXTT10=
PLAYORDER=
